<svg width="20" height="20" viewBox="0 0 20 20" fill="none" xmlns="http://www.w3.org/2000/svg">
<path d="M9.71863 9.30458L16.3593 1.297C16.8182 0.743531 17.5604 0.743531 18.0145 1.297L19.118 2.62767C19.577 3.18113 19.577 4.0761 19.118 4.62368L14.4159 10.3055L19.1229 15.9815C19.5819 16.535 19.5819 17.4299 19.1229 17.9775L18.0194 19.3141C17.5604 19.8675 16.8182 19.8675 16.3641 19.3141L9.72351 11.3065C9.25965 10.753 9.25965 9.85804 9.71863 9.30458ZM0.34363 11.3065L6.98426 19.3141C7.44324 19.8675 8.18543 19.8675 8.63953 19.3141L9.74304 17.9834C10.202 17.4299 10.202 16.535 9.74304 15.9874L5.0409 10.3055L9.74793 4.62956C10.2069 4.0761 10.2069 3.18113 9.74793 2.63356L8.64441 1.297C8.18543 0.743531 7.44324 0.743531 6.98914 1.297L0.348513 9.30458C-0.115354 9.85804 -0.115354 10.753 0.34363 11.3065Z" fill="white"/>
</svg>
