<svg width="20" height="20" viewBox="0 0 20 20" fill="none" xmlns="http://www.w3.org/2000/svg">
<path d="M9.74365 10.9533L3.10303 18.9608C2.64404 19.5143 1.90186 19.5143 1.44775 18.9608L0.344238 17.6302C-0.114746 17.0767 -0.114746 16.1817 0.344238 15.6342L5.05127 9.95821L0.344238 4.28224C-0.114746 3.72878 -0.114746 2.83381 0.344238 2.28623L1.44287 0.943785C1.90186 0.39032 2.64404 0.39032 3.09814 0.943785L9.73877 8.95137C10.2026 9.50483 10.2026 10.3998 9.74365 10.9533ZM19.1187 8.95137L12.478 0.943785C12.019 0.39032 11.2769 0.39032 10.8228 0.943785L9.71924 2.27446C9.26025 2.82792 9.26025 3.72289 9.71924 4.27047L14.4263 9.94643L9.71924 15.6224C9.26025 16.1759 9.26025 17.0708 9.71924 17.6184L10.8228 18.9491C11.2817 19.5025 12.0239 19.5025 12.478 18.9491L19.1187 10.9415C19.5776 10.3998 19.5776 9.50483 19.1187 8.95137Z" fill="white"/>
</svg>
