<svg width="38" height="44" viewBox="0 0 38 44" fill="none" xmlns="http://www.w3.org/2000/svg">
<path d="M10.2529 7.75488C10.318 7.51074 10.3994 7.11198 10.4971 6.55859C10.611 6.00521 10.79 5.63086 11.0342 5.43555C11.2783 5.24023 11.7178 5.15072 12.3525 5.16699C13.0036 5.18327 13.3291 5.33789 13.3291 5.63086C13.3454 5.92383 12.4339 9.77311 10.5947 17.1787C8.77181 24.5843 7.54297 29.3206 6.9082 31.3877C6.28971 33.4548 5.72005 34.9603 5.19922 35.9043C4.67839 36.8483 3.97038 37.7109 3.0752 38.4922C2.19629 39.2734 1.56152 39.6559 1.1709 39.6396C0.780273 39.6234 0.576823 39.542 0.560547 39.3955C0.560547 39.249 0.658203 39.0293 0.853516 38.7363C2.72526 35.888 4.38542 31.5505 5.83398 25.7236L10.2529 7.75488ZM18.7734 35.9287L19.0176 24.4541C19.0176 23.8682 19.0013 23.1846 18.9688 22.4033C15.3229 32.9176 13.0687 39.2083 12.2061 41.2754C11.5387 42.5449 10.7656 43.2122 9.88672 43.2773C9.78906 43.2448 9.74023 43.1878 9.74023 43.1064C9.74023 43.0251 9.90299 42.6426 10.2285 41.959C10.7656 40.8685 12.3281 36.0182 14.916 27.4082C18.8548 14.2409 20.8975 7.05501 21.0439 5.85059C21.2067 5.00423 21.5648 4.58105 22.1182 4.58105C23.3063 4.58105 23.9411 4.88216 24.0225 5.48438C23.9736 6.00521 23.6074 7.77116 22.9238 10.7822C22.2402 13.777 21.8659 15.5186 21.8008 16.0068C21.752 16.4788 21.6136 17.4473 21.3857 18.9121C21.1742 20.3607 21.0684 21.3372 21.0684 21.8418C21.0684 22.3301 21.0846 22.6393 21.1172 22.7695C21.5241 21.4186 22.1751 18.9854 23.0703 15.4697C23.9655 11.9541 24.6165 9.62663 25.0234 8.4873C25.4466 7.33171 25.6908 6.63997 25.7559 6.41211C27.0742 2.44076 28.1159 0.455078 28.8809 0.455078C29.0924 0.455078 29.3854 0.593424 29.7598 0.870117C30.1341 1.13053 30.3213 1.44792 30.3213 1.82227C30.3213 2.19661 30.1585 2.66048 29.833 3.21387C28.7262 5.10189 27.3753 8.1862 25.7803 12.4668C22.6715 20.8327 21.0358 27.8883 20.873 33.6338V33.6582C20.8079 35.8392 20.4987 36.9297 19.9453 36.9297C19.7174 36.9297 19.5221 36.9134 19.3594 36.8809C18.9688 36.7832 18.7734 36.4658 18.7734 35.9287ZM34.5205 7.75488C34.5856 7.51074 34.667 7.11198 34.7646 6.55859C34.8786 6.00521 35.0576 5.63086 35.3018 5.43555C35.5459 5.24023 35.9854 5.15072 36.6201 5.16699C37.2712 5.18327 37.5967 5.33789 37.5967 5.63086C37.613 5.92383 36.7015 9.77311 34.8623 17.1787C33.0394 24.5843 31.8105 29.3206 31.1758 31.3877C30.5573 33.4548 29.9876 34.9603 29.4668 35.9043C28.946 36.8483 28.238 37.7109 27.3428 38.4922C26.4639 39.2734 25.8291 39.6559 25.4385 39.6396C25.0479 39.6234 24.8444 39.542 24.8281 39.3955C24.8281 39.249 24.9258 39.0293 25.1211 38.7363C26.9928 35.888 28.653 31.5505 30.1016 25.7236L34.5205 7.75488Z" fill="white"/>
</svg>
