<svg width="72" height="107" viewBox="0 0 72 107" fill="none" xmlns="http://www.w3.org/2000/svg">
<path d="M55 0.881897C52.08 0.881897 49.3184 1.77724 46.8984 3.36896L9.10156 27.3634C3.70156 30.7881 0 37.6361 0 45.4983C0 55.6033 6.0825 63.9986 14.0625 65.6868L9.34375 68.1927C3.80375 71.5932 0 78.5144 0 86.4971C0 97.808 7.62 106.997 17 106.997C19.94 106.997 22.7016 106.101 25.1016 104.509L62.3594 80.8541C68.0594 77.5501 72 70.5076 72 62.3801C72 52.2751 65.9175 43.8798 57.9375 42.1916L62.6562 39.6857C68.1963 36.2852 72 29.364 72 21.3813C72 10.0705 64.38 0.881897 55 0.881897ZM28 39.469L48 53.9392L28 68.4094V39.469Z" fill="#FF0202"/>
</svg>
