<svg width="96" height="96" viewBox="0 0 96 96" fill="none" xmlns="http://www.w3.org/2000/svg">
<rect x="28" y="24" width="44" height="53" fill="#D9D9D9"/>
<path d="M24 12C17.4201 12 12 17.4201 12 24V72C12 78.5799 17.4201 84 24 84H72C78.5799 84 84 78.5799 84 72V24C84 17.4201 78.5799 12 72 12H24ZM48 28H56C56 32.02 61.884 36 64 36V44C61.58 44 58.672 42.9366 56 41.1406V56C56 62.616 50.616 68 44 68C37.384 68 32 62.616 32 56C32 49.384 37.384 44 44 44V52C41.792 52 40 53.796 40 56C40 58.204 41.792 60 44 60C46.208 60 48 58.204 48 56V28Z" fill="black"/>
</svg>
