<svg width="96" height="96" viewBox="0 0 96 96" fill="none" xmlns="http://www.w3.org/2000/svg">
<rect x="20" y="19" width="56" height="65" fill="#D9D9D9"/>
<path d="M40.212 31.952L62.736 64.048H56.748L34.264 31.952H40.212ZM84 24V72C84 78.628 78.628 84 72 84H24C17.372 84 12 78.628 12 72V24C12 17.372 17.372 12 24 12H72C78.628 12 84 17.372 84 24ZM70.152 68L53.408 44.04L67.096 28H61.852L51.036 40.64L42.208 28H26.808L42.572 50.532L27.624 68H32.956L44.96 53.936L54.792 68H70.152Z" fill="black"/>
</svg>
